<?xml version="1.0" encoding="iso-8859-1"?>
<!-- Generator: Adobe Illustrator 19.0.0, SVG Export Plug-In . SVG Version: 6.00 Build 0)  -->
<svg version="1.1" id="Capa_1" xmlns="http://www.w3.org/2000/svg" xmlns:xlink="http://www.w3.org/1999/xlink" x="0px" y="0px"
	 viewBox="0 0 512 512" style="enable-background:new 0 0 512 512;" xml:space="preserve">
<path style="fill:#55D3FA;" d="M328,0C226.542,0,144,82.542,144,184s82.542,184,184,184s184-82.542,184-184S429.458,0,328,0z"/>
<path style="fill:#EDEBEC;" d="M184,144C82.542,144,0,226.542,0,328s82.542,184,184,184s184-82.542,184-184S285.458,144,184,144z"/>
<path style="fill:#DCD7D8;" d="M208,496c-101.458,0-184-82.542-184-184c0-58.641,27.575-110.963,70.438-144.68
	C38.145,198.821,0,259.035,0,328c0,101.458,82.542,184,184,184c42.817,0,82.265-14.701,113.562-39.32
	C271.039,487.522,240.493,496,208,496z"/>
<path style="fill:#7FDEFB;" d="M184,144c-12.452,0-24.616,1.25-36.381,3.619C145.25,159.384,144,171.548,144,184
	c0,101.458,82.542,184,184,184c12.452,0,24.616-1.25,36.381-3.619C366.75,352.616,368,340.452,368,328
	C368,226.542,285.458,144,184,144z"/>
<path style="fill:#56C4F0;" d="M512,184c0-11.275-1.039-22.609-3.088-33.685c0-0.001,0-0.002,0-0.002
	c-2.862-15.459-7.715-30.509-14.426-44.732c-0.001-0.003-0.003-0.005-0.005-0.008c-6.103-12.936-13.743-25.18-22.708-36.392
	c-0.004-0.005-0.007-0.01-0.011-0.015c-8.728-10.911-18.697-20.835-29.633-29.493c-11.258-8.915-23.564-16.506-36.577-22.563
	c-14.323-6.667-29.441-11.453-44.933-14.225C349.922,0.971,338.947,0,328,0c-8.419,0-16.953,0.589-25.366,1.749
	c-81.172,11.198-145.686,75.712-156.885,156.885v0.002C144.588,167.047,144,175.582,144,184c0,10.949,0.971,21.924,2.885,32.619
	c2.772,15.491,7.558,30.609,14.225,44.933c6.057,13.013,13.647,25.319,22.562,36.577c8.653,10.929,18.574,20.896,29.486,29.625
	c0.003,0.002,0.006,0.005,0.009,0.008c11.215,8.969,23.466,16.614,36.415,22.724c14.224,6.711,29.273,11.564,44.731,14.426
	c0.002,0,0.003,0,0.005,0C305.392,366.961,316.725,368,328,368c7.955,0,15.99-0.519,23.884-1.542c0,0,0.001,0,0.002,0
	c82.646-10.719,147.854-75.926,158.572-158.572v-0.002C511.481,199.991,512,191.955,512,184z M293.13,348.368
	c-8.911-1.882-17.657-4.493-26.14-7.8l217.578-217.577c3.307,8.482,5.919,17.229,7.8,26.139L293.13,348.368z M230.31,320.68
	L464.679,86.311c4.802,6.707,9.105,13.758,12.864,21.076L251.387,333.543C244.067,329.784,237.015,325.479,230.31,320.68z
	 M178.047,259.805L403.805,34.047c7.358,3.726,14.442,7.997,21.176,12.764l-234.17,234.17
	C186.044,274.247,181.774,267.162,178.047,259.805z M163.415,217.869L361.869,19.415c8.939,1.831,17.726,4.4,26.263,7.677
	l-217.04,217.041C167.816,235.596,165.247,226.807,163.415,217.869z M342.072,16.583l-9.162,9.162L160.583,198.073
	C160.195,193.396,160,188.696,160,184c0-6.813,0.422-13.708,1.256-20.541L307.46,17.256
	C319.001,15.847,330.613,15.632,342.072,16.583z M278.72,23.367L167.366,134.721C183.665,81.655,225.656,39.665,278.72,23.367z
	 M200.745,293.675l236.93-236.929c6.056,5.228,11.748,10.891,17.011,16.93L217.675,310.687
	C211.636,305.422,205.971,299.73,200.745,293.675z M312.812,351.315l182.504-182.504C495.771,173.864,496,178.939,496,184
	c0,6.373-0.364,12.801-1.084,19.15L347.15,350.916C335.758,352.207,324.225,352.343,312.812,351.315z M375.496,345.199
	l113.703-113.703C473.155,286.165,430.165,329.155,375.496,345.199z"/>
<g>
</g>
<g>
</g>
<g>
</g>
<g>
</g>
<g>
</g>
<g>
</g>
<g>
</g>
<g>
</g>
<g>
</g>
<g>
</g>
<g>
</g>
<g>
</g>
<g>
</g>
<g>
</g>
<g>
</g>
</svg>
