<?xml version="1.0" encoding="iso-8859-1"?>
<!-- Generator: Adobe Illustrator 16.0.0, SVG Export Plug-In . SVG Version: 6.00 Build 0)  -->
<!DOCTYPE svg PUBLIC "-//W3C//DTD SVG 1.1//EN" "http://www.w3.org/Graphics/SVG/1.1/DTD/svg11.dtd">
<svg version="1.1" id="Capa_1" xmlns="http://www.w3.org/2000/svg" xmlns:xlink="http://www.w3.org/1999/xlink" x="0px" y="0px"
	 width="31.63px" height="31.63px" viewBox="0 0 31.63 31.63" style="enable-background:new 0 0 31.63 31.63;" xml:space="preserve"
	>
<g>
	<g>
		<g>
			<path d="M15.815,9.235c-0.391,0-0.78-0.16-1.061-0.44c-0.279-0.27-0.439-0.66-0.439-1.06c0-0.39,0.16-0.78,0.439-1.06
				c0.561-0.56,1.562-0.56,2.12,0c0.28,0.28,0.44,0.67,0.44,1.06c0,0.4-0.16,0.78-0.44,1.06C16.595,9.075,16.205,9.235,15.815,9.235
				z"/>
		</g>
		<g>
			<path d="M15.325,28.025L15.325,28.025c-0.79-0.271-1.21-1.12-0.94-1.9l0,0c0.261-0.79,1.12-1.21,1.9-0.939l0,0l0,0l0,0
				c0.78,0.26,1.2,1.119,0.94,1.899l0,0c-0.21,0.63-0.802,1.021-1.42,1.021l0,0C15.645,28.105,15.485,28.075,15.325,28.025z
				 M19.905,24.855c-0.42-0.721-0.17-1.641,0.55-2.051l0,0c0.72-0.409,1.63-0.159,2.05,0.561l0,0c0.41,0.72,0.16,1.63-0.56,2.05l0,0
				c-0.23,0.13-0.49,0.19-0.74,0.19l0,0C20.686,25.605,20.174,25.335,19.905,24.855z M9.665,25.396L9.665,25.396
				c-0.72-0.41-0.97-1.32-0.56-2.04l0,0c0.42-0.721,1.33-0.971,2.05-0.551l0,0l0,0l0,0c0.72,0.41,0.97,1.32,0.56,2.04l0,0
				c-0.279,0.48-0.79,0.75-1.3,0.75l0,0C10.155,25.595,9.895,25.535,9.665,25.396z M24.905,21.655c-0.57-0.601-0.53-1.55,0.07-2.12
				l0,0c0.608-0.57,1.56-0.53,2.119,0.07l0,0c0.569,0.609,0.539,1.55-0.069,2.119l0,0c-0.29,0.271-0.66,0.41-1.021,0.41l0,0
				C25.595,22.135,25.205,21.975,24.905,21.655z M4.585,21.715c-0.6-0.569-0.63-1.52-0.069-2.12l0,0
				c0.569-0.609,1.52-0.64,2.119-0.069l0,0c0.61,0.569,0.641,1.51,0.07,2.12l0,0c-0.29,0.31-0.689,0.47-1.09,0.47l0,0
				C5.245,22.115,4.875,21.985,4.585,21.715z M28.884,17.255c-0.76-0.33-1.108-1.209-0.789-1.97l0,0
				c0.329-0.76,1.211-1.11,1.971-0.79l0,0c0.76,0.32,1.108,1.21,0.79,1.97l0,0c-0.24,0.57-0.79,0.91-1.38,0.91l0,0
				C29.285,17.375,29.085,17.335,28.884,17.255z M0.754,16.436c-0.319-0.76,0.04-1.64,0.801-1.96l0,0c0.76-0.33,1.64,0.03,1.97,0.79
				l0,0c0.32,0.77-0.04,1.65-0.8,1.97l0,0c-0.19,0.08-0.391,0.12-0.58,0.12l0,0C1.555,17.355,1.004,17.015,0.754,16.436z
				 M28.655,10.335c-0.15-0.81,0.39-1.59,1.2-1.74l0,0c0.818-0.15,1.6,0.39,1.75,1.2l0,0c0.148,0.82-0.392,1.6-1.2,1.75l0,0
				c-0.1,0.02-0.19,0.03-0.28,0.03l0,0C29.415,11.575,28.785,11.065,28.655,10.335z M1.235,11.525c-0.82-0.15-1.36-0.94-1.21-1.75
				l0,0c0.149-0.82,0.939-1.35,1.75-1.2l0,0c0.81,0.15,1.35,0.93,1.2,1.75l0,0l0,0l0,0c-0.13,0.72-0.761,1.22-1.471,1.22l0,0
				C1.415,11.545,1.325,11.535,1.235,11.525z M26.205,6.745c-0.75-0.37-1.05-1.26-0.688-2.01l0,0c0.358-0.74,1.26-1.05,2.01-0.69
				l0,0c0.74,0.37,1.05,1.27,0.688,2.01l0,0c-0.27,0.53-0.8,0.84-1.35,0.84l0,0C26.634,6.896,26.415,6.845,26.205,6.745z
				 M3.435,6.035c-0.36-0.74-0.051-1.64,0.699-2l0,0c0.74-0.36,1.641-0.05,2,0.69l0,0c0.36,0.75,0.051,1.65-0.699,2.01l0,0
				c-0.21,0.1-0.431,0.15-0.65,0.15l0,0C4.225,6.885,3.695,6.575,3.435,6.035z M10.235,6.485L10.235,6.485L10.235,6.485
				c-0.8-0.2-1.3-1.01-1.101-1.81l0,0c0.2-0.81,1.011-1.3,1.82-1.1l0,0c0.8,0.2,1.29,1.01,1.09,1.81l0,0
				c-0.17,0.69-0.779,1.15-1.449,1.15l0,0C10.475,6.535,10.355,6.515,10.235,6.485z M19.595,5.385
				c-0.189-0.81,0.301-1.62,1.101-1.82h0.01c0.8-0.19,1.61,0.3,1.812,1.1l0,0c0.198,0.81-0.302,1.62-1.102,1.82l0,0l0,0l0,0
				c-0.12,0.03-0.24,0.04-0.358,0.04l0,0C20.375,6.525,19.766,6.065,19.595,5.385z"/>
		</g>
	</g>
</g>
<g>
</g>
<g>
</g>
<g>
</g>
<g>
</g>
<g>
</g>
<g>
</g>
<g>
</g>
<g>
</g>
<g>
</g>
<g>
</g>
<g>
</g>
<g>
</g>
<g>
</g>
<g>
</g>
<g>
</g>
</svg>
