<?xml version="1.0" encoding="iso-8859-1"?>
<!-- Generator: Adobe Illustrator 19.0.0, SVG Export Plug-In . SVG Version: 6.00 Build 0)  -->
<svg version="1.1" id="Capa_1" xmlns="http://www.w3.org/2000/svg" xmlns:xlink="http://www.w3.org/1999/xlink" x="0px" y="0px"
	 viewBox="0 0 511.918 511.918" style="enable-background:new 0 0 511.918 511.918;" xml:space="preserve">
<path style="fill:#CCD1D9;" d="M4.012,493.612c0,0,120.544,14.396,355.955-221.013l-73.591-73.501
	C103.607,381.862,111.523,373.951,64.492,420.982C34.251,451.212,4.012,493.612,4.012,493.612z"/>
<g style="opacity:0.7;">
	<path style="fill:#FFFFFF;" d="M297.688,210.404C114.917,393.189,122.834,385.262,75.802,432.293
		c-20.028,20.028-39.994,45.321-51.238,60.163c-13.619,1.938-20.552,1.156-20.552,1.156s30.238-42.399,60.479-72.63
		c47.032-47.031,39.115-39.119,221.884-221.884l73.591,73.501l-0.007,0.016L297.688,210.404z"/>
</g>
<g>
	<polygon style="fill:#FFFFFF;" points="297.539,331.34 358.115,270.763 348.555,261.21 287.985,321.779 	"/>
	<path style="fill:#FFFFFF;" d="M40.89,473.849l42.005-15.201l49.594-24.652c0,0,49.028-30.62,50.969-31.956
		c1.941-1.335,47.267-34.9,47.267-34.9l36.35-29.926l19.271-17.075l9.046,6.562l-1.797,8.593l-44.251,37.447l-45.845,34.799
		l-30.655,20.802l-26.211,16.06l-38.588,20.45l-40.576,16.779l-29.714,8.444l-23.172,3.468l-10.569,0.07L40.89,473.849z"/>
</g>
<polygon style="fill:#F5F7FA;" points="303.334,182.143 337.29,216.091 331.689,221.691 371.285,261.284 359.967,272.599 
	320.371,233.006 318.66,231.296 286.415,199.055 "/>
<g>
	<path style="fill:#CCD1D9;" d="M439.149,80.311c3.125,3.121,8.163,3.039,11.288,0.004c3.108-3.199,3.108-8.241-0.008-11.358
		c-3.125-3.12-8.155-3.124-11.28-0.004C436.033,72.074,436.033,77.19,439.149,80.311z"/>
	<path style="fill:#CCD1D9;" d="M393.883,125.503c3.117,3.121,8.155,3.125,11.358,0.008c3.116-3.125,3.116-8.163-0.008-11.284
		c-3.195-3.12-8.241-3.12-11.351-0.004C390.759,117.345,390.759,122.383,393.883,125.503z"/>
	<path style="fill:#CCD1D9;" d="M348.602,170.781c3.202,3.121,8.24,3.121,11.365,0c3.116-3.12,3.116-8.163,0-11.361
		c-3.125-3.121-8.241-3.117-11.357,0.004C345.484,162.619,345.57,167.657,348.602,170.781z"/>
</g>
<g>
	<path style="fill:#FFFFFF;" d="M354.265,165.079c2.069-2.07,4.991-2.632,7.655-1.96c-0.352-1.335-0.914-2.628-1.953-3.699
		c-3.125-3.121-8.241-3.117-11.357,0.004c-3.125,3.195-3.039,8.233-0.008,11.357c1.077,1.051,2.382,1.613,3.733,1.957
		C351.663,170.094,352.194,167.196,354.265,165.079z"/>
	<path style="fill:#FFFFFF;" d="M399.5,119.844c2.069-2.07,4.991-2.636,7.654-1.96c-0.344-1.339-0.914-2.628-1.952-3.699
		c-3.117-3.12-8.241-3.116-11.358,0.004c-3.124,3.195-3.038,8.229,0,11.358c1.078,1.05,2.375,1.613,3.727,1.953
		C396.898,124.859,397.43,121.961,399.5,119.844z"/>
	<path style="fill:#FFFFFF;" d="M444.734,74.604c2.07-2.065,4.992-2.632,7.655-1.96c-0.344-1.336-0.905-2.629-1.952-3.699
		c-3.117-3.12-8.233-3.116-11.357,0.004c-3.125,3.195-3.039,8.233,0,11.362c1.077,1.046,2.382,1.609,3.726,1.953
		C442.134,79.62,442.665,76.726,444.734,74.604z"/>
</g>
<path style="fill:#965353;" d="M450.438,80.315c3.108-3.199,3.108-8.241-0.008-11.358c-3.125-3.12-8.155-3.124-11.28-0.004
	c-3.116,3.121-3.116,8.237,0,11.358C442.274,83.432,447.313,83.35,450.438,80.315z M405.241,125.511
	c3.116-3.125,3.116-8.163-0.008-11.284c-3.195-3.12-8.241-3.12-11.351-0.004c-3.124,3.121-3.124,8.159,0,11.28
	C397,128.624,402.038,128.628,405.241,125.511z M500.023,70.16c-6.077-6.085-18.153-6.085-24.152-0.004
	c0,0-3.211,21.836-51.602,70.228c-48.392,48.391-81.34,69.985-81.34,69.985l-5.601,5.687l-33.995-33.913l5.68-5.683L457.709,27.839
	C487.947-2.473,524.176,45.996,500.023,70.16z M348.609,159.424c-3.125,3.195-3.039,8.233-0.008,11.357
	c3.202,3.121,8.24,3.121,11.365,0c3.116-3.12,3.116-8.163,0-11.361C356.842,156.299,351.726,156.303,348.609,159.424z"/>
<g style="opacity:0.2;">
	<path style="fill:#FFFFFF;" d="M469.028,39.153l-29.715,29.69c-0.047,0.047-0.117,0.059-0.164,0.109
		c-0.046,0.047-0.062,0.117-0.108,0.164l-45.072,45.048c-0.023,0.027-0.063,0.031-0.086,0.059c-0.031,0.027-0.031,0.063-0.063,0.09
		l-44.969,44.95c-0.07,0.066-0.172,0.086-0.242,0.16c-0.07,0.066-0.094,0.16-0.156,0.234l-28.129,28.113l-5.663,5.663
		l-11.327-11.292l5.68-5.683L457.709,27.839c17.068-17.111,36.034-9.108,44.979,5.448C493.071,27.542,480.62,27.526,469.028,39.153z
		"/>
</g>
<g>
	<path style="fill:#3A3847;" d="M8.293,497.751L8.293,497.751c-3.18,0-4.777-0.195-4.777-0.195c-1.394-0.18-2.609-1.07-3.175-2.367
		c-0.566-1.288-0.422-2.78,0.398-3.929c0.305-0.43,30.776-42.954,60.896-73.09l221.936-221.916c1.5-1.5,4.155-1.5,5.655,0
		l73.512,73.524c1.563,1.563,1.563,4.093,0,5.655C151.147,487.026,30.368,497.751,8.293,497.751z M286.399,204.737L67.476,423.638
		c-22.965,22.98-46.094,53.172-55.66,66.037c28.746-1.281,144.302-19.857,342.441-217.076L286.399,204.737z"/>
	<path style="fill:#3A3847;" d="M40.901,477.896c-1.726,0-3.316-1.124-3.832-2.858c-0.633-2.117,0.574-4.344,2.688-4.977
		c86.291-25.723,185.437-93.134,294.69-200.359c1.57-1.547,4.101-1.531,5.655,0.055c1.546,1.578,1.522,4.108-0.055,5.655
		C229.857,383.559,129.595,451.626,42.046,477.724C41.663,477.832,41.276,477.896,40.901,477.896z"/>
	<path style="fill:#3A3847;" d="M365.575,270.943c-1.023,0-2.047-0.391-2.828-1.172c-1.562-1.563-1.562-4.094,0-5.655l5.655-5.651
		c1.563-1.563,4.094-1.563,5.656,0c1.562,1.562,1.562,4.093,0,5.651l-5.656,5.655C367.621,270.552,366.599,270.943,365.575,270.943z
		"/>
	<path style="fill:#3A3847;" d="M371.23,265.286c-1.023,0-2.047-0.391-2.828-1.171l-33.932-33.929c-1.563-1.563-1.563-4.093,0-5.655
		s4.093-1.563,5.655,0l33.933,33.933c1.562,1.562,1.562,4.093,0,5.651C373.277,264.896,372.254,265.286,371.23,265.286z"/>
	<path style="fill:#3A3847;" d="M309.014,180.452c-1.023,0-2.047-0.391-2.828-1.172c-1.563-1.563-1.563-4.093,0-5.655
		L454.843,24.983c1.563-1.563,4.093-1.563,5.655,0s1.563,4.093,0,5.655L311.841,179.28
		C311.061,180.062,310.037,180.452,309.014,180.452z"/>
	<path style="fill:#3A3847;" d="M342.953,214.392c-1.297,0-2.577-0.633-3.343-1.804c-1.211-1.844-0.703-4.324,1.148-5.538
		c0.32-0.215,33.198-22.009,80.675-69.482c46.282-46.274,50.398-67.83,50.438-68.044c0.367-2.152,2.43-3.647,4.57-3.3
		c2.163,0.339,3.655,2.331,3.335,4.499c-0.133,0.945-3.913,23.73-52.688,72.5c-48.125,48.122-80.581,69.623-81.94,70.513
		C344.469,214.181,343.711,214.392,342.953,214.392z"/>
	<path style="fill:#3A3847;" d="M500.008,74.148c-1.023,0-2.047-0.391-2.828-1.172c-1.563-1.562-1.563-4.097,0-5.655
		c8.28-8.276,7.163-18.294,5.758-23.528c-2.711-10.131-10.522-18.544-19.428-20.93c-7.865-2.101-15.825,0.582-23.012,7.776
		c-1.563,1.563-4.093,1.563-5.655,0c-1.563-1.562-1.563-4.093,0-5.655c9.194-9.198,20.106-12.709,30.737-9.846
		c11.576,3.101,21.661,13.787,25.09,26.585c3.141,11.745,0.289,23.137-7.834,31.253C502.055,73.757,501.031,74.148,500.008,74.148z"
		/>
	<path style="fill:#3A3847;" d="M500.008,74.148c-1.023,0-2.047-0.391-2.828-1.172c-2.108-2.105-5.569-3.363-9.271-3.363h-0.008
		c-3.695,0.004-7.147,1.258-9.249,3.359c-1.562,1.57-4.093,1.562-5.655,0.008c-1.563-1.558-1.563-4.093-0.008-5.655
		c3.617-3.625,9.046-5.707,14.904-5.71c0.008,0,0.008,0,0.016,0c5.858,0,11.303,2.078,14.928,5.707c1.562,1.562,1.562,4.093,0,5.655
		C502.055,73.757,501.031,74.148,500.008,74.148z"/>
	<path style="fill:#3A3847;" d="M337.298,220.047c-1.022,0-2.046-0.39-2.827-1.171l-33.94-33.94c-1.563-1.563-1.563-4.093,0-5.655
		s4.093-1.563,5.655,0l33.94,33.94c1.562,1.562,1.562,4.093,0,5.655C339.345,219.657,338.321,220.047,337.298,220.047z"/>
	<path style="fill:#3A3847;" d="M292.055,197.426c-1.023,0-2.046-0.391-2.827-1.172c-1.563-1.558-1.563-4.093,0-5.655l11.303-11.318
		c1.563-1.563,4.093-1.563,5.655,0c1.563,1.559,1.563,4.093,0,5.655l-11.303,11.318
		C294.102,197.035,293.078,197.426,292.055,197.426z"/>
	<path style="fill:#3A3847;" d="M337.298,231.358c-1.022,0-2.046-0.391-2.827-1.168c-2.266-2.269-3.516-5.28-3.516-8.487
		c0-3.202,1.242-6.218,3.516-8.482c1.563-1.563,4.093-1.563,5.655,0c1.562,1.562,1.562,4.093,0,5.655
		c-0.758,0.758-1.172,1.761-1.172,2.827s0.414,2.07,1.172,2.824c1.562,1.563,1.562,4.093,0.008,5.659
		C339.353,230.968,338.321,231.358,337.298,231.358z"/>
	<path style="fill:#3A3847;" d="M354.28,177.116c-3.203,0-6.218-1.246-8.483-3.515c-2.266-2.262-3.516-5.272-3.516-8.479
		c0-3.206,1.25-6.222,3.516-8.487c4.522-4.527,12.436-4.535,16.966,0c2.273,2.269,3.523,5.289,3.516,8.499
		c0,3.207-1.25,6.214-3.516,8.472C360.498,175.871,357.482,177.116,354.28,177.116z M354.28,161.119c-1.063,0-2.07,0.418-2.82,1.172
		c-0.766,0.761-1.18,1.765-1.18,2.831c0,1.07,0.414,2.07,1.172,2.82c1.516,1.527,4.14,1.515,5.655,0.004
		c0.758-0.754,1.172-1.754,1.172-2.82c0-1.07-0.414-2.078-1.172-2.835C356.35,161.537,355.35,161.119,354.28,161.119z"/>
	<path style="fill:#3A3847;" d="M399.531,131.874c-3.211,0-6.227-1.25-8.491-3.515c-4.663-4.679-4.663-12.287,0-16.966
		c4.546-4.535,12.451-4.527,16.974,0c2.266,2.269,3.516,5.285,3.516,8.495c0,3.203-1.25,6.214-3.523,8.476
		C405.756,130.624,402.741,131.874,399.531,131.874z M399.531,115.876c-1.07,0-2.07,0.418-2.828,1.172
		c-1.555,1.558-1.555,4.097,0,5.655c1.516,1.519,4.155,1.507,5.647,0.004c0.766-0.762,1.18-1.762,1.18-2.828
		s-0.414-2.074-1.172-2.831C401.601,116.29,400.602,115.876,399.531,115.876z"/>
	<path style="fill:#3A3847;" d="M444.773,86.626c-3.21,0-6.217-1.246-8.482-3.507c-4.672-4.683-4.672-12.299,0-16.978
		c4.546-4.531,12.428-4.527,16.966-0.004c4.679,4.679,4.679,12.291,0.008,16.974C450.992,85.381,447.977,86.626,444.773,86.626z
		 M444.773,70.629c-1.069,0-2.069,0.414-2.827,1.172c-1.555,1.558-1.555,4.101,0.008,5.663c1.492,1.504,4.14,1.496,5.655-0.008
		c1.555-1.559,1.555-4.101,0-5.659C446.852,71.043,445.844,70.629,444.773,70.629z"/>
</g>
<g>
</g>
<g>
</g>
<g>
</g>
<g>
</g>
<g>
</g>
<g>
</g>
<g>
</g>
<g>
</g>
<g>
</g>
<g>
</g>
<g>
</g>
<g>
</g>
<g>
</g>
<g>
</g>
<g>
</g>
</svg>
