<?xml version="1.0" encoding="iso-8859-1"?>
<!-- Generator: Adobe Illustrator 19.0.0, SVG Export Plug-In . SVG Version: 6.00 Build 0)  -->
<svg version="1.1" id="Layer_1" xmlns="http://www.w3.org/2000/svg" xmlns:xlink="http://www.w3.org/1999/xlink" x="0px" y="0px"
	 viewBox="0 0 512.001 512.001" style="enable-background:new 0 0 512.001 512.001;" xml:space="preserve">
<path style="fill:#54B8AC;" d="M253.618,280.438L4.011,380.706c-5.348,2.148-5.348,9.718,0,11.866l249.606,100.268
	c1.529,0.615,3.237,0.615,4.766,0l249.606-100.268c5.348-2.148,5.348-9.718,0-11.866L258.383,280.437
	C256.854,279.823,255.147,279.823,253.618,280.438z"/>
<path style="opacity:0.2;fill:#145587;enable-background:new    ;" d="M258.385,280.438c-1.53-0.615-3.238-0.615-4.767,0
	L94.895,344.197l158.723,63.76c1.529,0.614,3.237,0.614,4.767,0l158.722-63.76L258.385,280.438z"/>
<path style="fill:#ACDFEA;" d="M253.618,149.8L4.011,250.068c-5.348,2.149-5.348,9.718,0,11.867l249.606,100.268
	c1.529,0.615,3.237,0.615,4.766,0l249.606-100.268c5.348-2.148,5.348-9.718,0-11.867L258.383,149.8
	C256.854,149.185,255.147,149.185,253.618,149.8z"/>
<path style="opacity:0.2;fill:#145587;enable-background:new    ;" d="M258.385,149.8c-1.53-0.615-3.238-0.615-4.767,0
	L94.895,213.559l158.723,63.76c1.529,0.614,3.237,0.614,4.767,0l158.722-63.76L258.385,149.8z"/>
<path style="fill:#F9C526;" d="M253.618,231.565L4.011,131.295c-5.348-2.148-5.348-9.718,0-11.866L253.618,19.16
	c1.529-0.615,3.237-0.615,4.766,0L507.99,119.429c5.348,2.148,5.348,9.718,0,11.866L258.384,231.565
	C256.854,232.179,255.147,232.179,253.618,231.565z"/>
<g>
</g>
<g>
</g>
<g>
</g>
<g>
</g>
<g>
</g>
<g>
</g>
<g>
</g>
<g>
</g>
<g>
</g>
<g>
</g>
<g>
</g>
<g>
</g>
<g>
</g>
<g>
</g>
<g>
</g>
</svg>
