<?xml version="1.0" encoding="iso-8859-1"?>
<!-- Generator: Adobe Illustrator 16.0.0, SVG Export Plug-In . SVG Version: 6.00 Build 0)  -->
<!DOCTYPE svg PUBLIC "-//W3C//DTD SVG 1.1//EN" "http://www.w3.org/Graphics/SVG/1.1/DTD/svg11.dtd">
<svg version="1.1" id="Capa_1" xmlns="http://www.w3.org/2000/svg" xmlns:xlink="http://www.w3.org/1999/xlink" x="0px" y="0px"
	 width="612.002px" height="612.002px" viewBox="0 0 612.002 612.002" style="enable-background:new 0 0 612.002 612.002;"
	 xml:space="preserve">
<g>
	<path d="M609.556,529.621L452.778,260.082c-2.757-4.787-7.181-7.468-12.861-8.106c-5.687-0.574-10.174,1.213-14.061,5.681
		l-67.918,78.378L202.362,65.922c-3.274-5.681-8.674-8.872-16.154-8.68c-5.987,0.127-11.827,5.042-14.061,11.042L0.715,532.621
		c-1.494,6-0.625,11.105,2.394,15.255c3.262,4.531,7.78,6.893,13.461,6.893h578.325c6.58,0,11.304-3,14.661-8.68
		C612.778,540.663,612.855,535.302,609.556,529.621z M39.311,521.579L191.295,112.26l149.289,260.604
		c3.294,4.468,7.48,7.213,12.868,7.787c5.681,0.638,10.441-1.213,14.061-5.361l68.218-78.443l130.442,224.733H39.311L39.311,521.579
		z"/>
</g>
<g>
</g>
<g>
</g>
<g>
</g>
<g>
</g>
<g>
</g>
<g>
</g>
<g>
</g>
<g>
</g>
<g>
</g>
<g>
</g>
<g>
</g>
<g>
</g>
<g>
</g>
<g>
</g>
<g>
</g>
</svg>
